/* XPM */
static char *body_20[]={
"20 20 79 2",
"Qt c #007b00",
".# c #007c00",
".a c #007e00",
".b c #008200",
".c c #008600",
".k c #008a00",
".j c #009900",
".u c #009d00",
".i c #00a000",
".K c #00a700",
".t c #00cc00",
".s c #00e400",
".C c #00e900",
".l c #047a04",
".D c #04c704",
".m c #126b12",
".E c #128412",
".v c #146914",
".L c #148414",
".R c #1a611a",
".d c #1d641d",
".F c #3c463c",
".S c #3c473c",
".n c #3c493c",
".w c #433743",
".M c #434143",
".0 c #5d1d5d",
".e c #5e1f5e",
".h c #7c007c",
".g c #7d007d",
".f c #7e007e",
".x c #7e167e",
".Z c #7e177e",
"#a c #7f007f",
".1 c #7f137f",
".N c #7f147f",
".G c #7f157f",
"## c #7f167f",
".o c #7f177f",
".r c #9d009d",
".q c #9f009f",
".p c #a000a0",
".H c #bb00bb",
".T c #bb0cbb",
".2 c #c002c0",
".y c #c006c0",
"#. c #c007c0",
".O c #c305c3",
".B c #de00de",
"#b c #df00df",
".A c #e000e0",
".z c #e200e2",
".I c #ea00ea",
".U c #ea2dea",
".P c #ec00ec",
".3 c #ec2dec",
".9 c #f900f9",
".4 c #f992f9",
".Q c #fa00fa",
".J c #ff00ff",
"#m c #ff0cff",
".Y c #ff0fff",
"#l c #ff2dff",
"#h c #ff2fff",
".8 c #ff30ff",
".X c #ff31ff",
"#c c #ff3eff",
".V c #ff40ff",
".W c #ff42ff",
"#k c #ff74ff",
"#g c #ff96ff",
".7 c #ff97ff",
"#d c #ffc2ff",
"#i c #ffc5ff",
".5 c #ffcaff",
".6 c #ffcdff",
"#j c #ffd8ff",
"#f c #ffddff",
"#e c #fffaff",
"Qt.#.a.b.c.d.e.f.g.h.h.g.f.e.d.c.b.a.#Qt",
".i.j.k.l.m.n.o.p.q.r.r.q.p.o.n.m.l.k.j.i",
".s.t.u.v.w.x.y.z.A.B.B.A.z.y.x.w.v.u.t.s",
".C.D.E.F.G.H.I.J.J.J.J.J.J.I.H.G.F.E.D.C",
".K.L.M.N.O.P.Q.J.J.J.J.J.J.Q.P.O.N.M.L.K",
".R.S.x.T.U.V.W.X.Y.J.J.J.J.J.J.I.H.Z.S.R",
".0.1.2.3.4.5.6.7.8.J.J.J.J.J.J.9.P#.##.0",
"#a.p#b#c#d#e#f#g#h.J.J.J.J.J.J.J.J#b.p#a",
".f.q#b.V#i#j#k#l#m.J.J.J.J.J.J.J.J#b.q.f",
".h.r.B.X.7.7.X.J.J.J.J.J.J.J.J.J.J.B.r.h",
".h.r.B.Y.8.8.Y.J.J.J.J.J.J.J.J.J.J.B.r.h",
".f.q#b.J.J.J.J.J.J.J.J.J.J.J.J.J.J#b.q.f",
"#a.p#b.J.J.J.J.J.J.J.J.J.J.J.J.J.J#b.p#a",
".0###..P.9.J.J.J.J.J.J.J.J.J.J.9.P#.##.0",
".R.S.Z.H.I.J.J.J.J.J.J.J.J.J.J.I.H.Z.S.R",
".K.L.M.N.O.P.Q.J.J.J.J.J.J.Q.P.O.N.M.L.K",
".C.D.E.F.G.H.I.J.J.J.J.J.J.I.H.G.F.E.D.C",
".s.t.u.v.w.x.y.z.A.B.B.A.z.y.x.w.v.u.t.s",
".i.j.k.l.m.n.o.p.q.r.r.q.p.o.n.m.l.k.j.i",
"Qt.#.a.b.c.d.e.f.g.h.h.g.f.e.d.c.b.a.#Qt"};
