/* XPM */
static char *body_10[]={
"10 10 5 1",
". c #008000",
"a c #00ff00",
"# c #800080",
"b c #ff00ff",
"c c #ffffff",
"...####...",
"a.#bbbb#.a",
".#bbbbbb#.",
"#bccbbbbb#",
"#bcbbbbbb#",
"#bbbbbbbb#",
"#bbbbbbbb#",
".#bbbbbb#.",
"a.#bbbb#.a",
"...####..."};
