/* XPM */
static char *food_20[]={
"20 20 65 2",
".a c #007900",
".e c #007a00",
".g c #007b00",
".# c #007d00",
".f c #007f00",
"Qt c #008000",
".l c #008300",
".h c #008400",
".m c #008500",
".t c #009100",
".i c #009300",
".p c #009400",
".n c #009700",
".Z c #009800",
".b c #009b00",
".o c #00a000",
".P c #00ac00",
".E c #00ad00",
".Y c #00b300",
".D c #00b400",
".Q c #00b500",
".j c #00b600",
".s c #00c500",
".q c #00c600",
".u c #00c800",
".O c #00ce00",
".F c #00d000",
".8 c #00dd00",
".c c #00df00",
".G c #00e300",
".v c #00e400",
".X c #00e500",
".C c #00e600",
".0 c #00e700",
".k c #00e800",
".N c #00e900",
".9 c #00ea00",
".7 c #00f600",
".1 c #00f700",
".r c #00f800",
"#. c #00f900",
".d c #00ff00",
".6 c #0cff0c",
".w c #0eb60e",
".B c #0fff0f",
".5 c #2dff2d",
".x c #2ee82e",
".H c #2eea2e",
".W c #2fff2f",
".M c #30ff30",
".A c #31ff31",
".R c #3eff3e",
".y c #40ff40",
".z c #42ff42",
".4 c #74ff74",
".I c #92f992",
".V c #96ff96",
".L c #97ff97",
".S c #c2ffc2",
".2 c #c5ffc5",
".J c #caffca",
".K c #cdffcd",
".3 c #d8ffd8",
".U c #ddffdd",
".T c #fafffa",
"QtQtQt.#.a.b.c.d.d.d.d.d.d.c.b.e.#.f.#.g",
"Qt.f.#.h.i.j.k.d.d.d.d.d.d.k.j.i.l.m.n.o",
"Qt.#.g.p.q.k.r.d.d.d.d.d.d.r.k.s.t.p.u.v",
".#.h.p.w.x.y.z.A.B.d.d.d.d.d.d.C.D.E.F.G",
".a.p.q.H.I.J.K.L.M.d.d.d.d.d.d.r.N.O.P.b",
".b.Q.C.R.S.T.U.V.W.d.d.d.d.d.d.d.d.X.Y.Z",
".c.0.1.y.2.3.4.5.6.d.d.d.d.d.d.d.d.7.C.8",
".d.d.d.A.L.L.A.d.d.d.d.d.d.d.d.d.d.d.d.d",
".d.d.d.B.M.M.B.d.d.d.d.d.d.d.d.d.d.d.d.d",
".d.d.d.d.d.d.d.d.d.d.d.d.d.d.d.d.d.d.d.d",
".d.d.d.d.d.d.d.d.d.d.d.d.d.d.d.d.d.d.d.d",
".d.d.d.d.d.d.d.d.d.d.d.d.d.d.d.d.d.d.d.d",
".d.d.d.d.d.d.d.d.d.d.d.d.d.d.d.d.d.d.d.d",
".c.0.1.d.d.d.d.d.d.d.d.d.d.d.d.d.d.7.C.8",
".b.Q.C.d.d.d.d.d.d.d.d.d.d.d.d.d.d.X.Y.Z",
".a.p.q.9#..d.d.d.d.d.d.d.d.d.d.r.N.O.P.b",
".#.h.p.j.k.d.d.d.d.d.d.d.d.d.d.C.D.E.F.G",
"Qt.#.g.p.q.k.r.d.d.d.d.d.d.r.k.s.t.p.u.v",
"Qt.f.#.h.i.j.k.d.d.d.d.d.d.k.j.i.l.m.n.o",
"QtQtQt.#.a.b.c.d.d.d.d.d.d.c.b.e.#.f.#.g"};
