/* XPM */
static char *food_10[]={
"10 10 3 1",
". c #008000",
"# c #00ff00",
"a c #ffffff",
"...####...",
"..######.#",
".#aa#####.",
"##a#######",
"##########",
"##########",
"##########",
".########.",
"..######.#",
"...####..."};
