/* XPM */
static char *grass_10[]={
"10 10 2 1",
". c #008000",
"# c #00ff00",
"..........",
"#....#...#",
"...#..#...",
"..........",
".#..#.....",
"....#...#.",
"..#...#...",
"..........",
"#...#....#",
".........."};
