/* XPM */
static char *grass_20[]={
"20 20 29 1",
"w c #007900",
"z c #007a00",
". c #007b00",
"d c #007c00",
"# c #007d00",
"c c #007e00",
"a c #007f00",
"b c #008000",
"u c #008400",
"x c #008500",
"h c #008600",
"y c #008700",
"g c #008800",
"v c #009500",
"n c #009600",
"p c #009700",
"f c #009800",
"k c #009900",
"e c #00a000",
"s c #00a100",
"r c #00b200",
"j c #00ca00",
"m c #00cb00",
"l c #00cc00",
"t c #00cd00",
"q c #00d600",
"A c #00e300",
"i c #00e400",
"o c #00e600",
".#abbbbbbcddcbbbba#.",
"efgaaacccgffh#aaagfe",
"ijf#ca#ddklmn.#c#fji",
"omk##gkphflqrph##kmo",
"sfg##kttfuvrqlf##gfs",
"d####kttfwwpltk#ca#d",
"c###cgkfh.dhkkgaaacc",
"cgkkgcdxpfyc##aaccab",
"dfltk.zpjmf##caa##ab",
"dfltpz.eAAeddccgkkgc",
"cgkfh..eAAed.ddktlfd",
"bcdhffhpjjphfphftlfd",
"bcdpttfxnnxfttfhpkgc",
"c##kttkdzzdkttkdd##c",
"d#cgkkg#..#gkkgcc##d",
"sfgc##cgkkgc##aaagfs",
"omk####kttk##cac#kmo",
"ijf#cc#kllk#cbbc#fji",
"efgaaaagffgaabbaagfe",
".#abbbbcddcbbbbbba#."};
