/* XPM */
static char *head_20[]={
"20 20 109 2",
"Qt c #007b00",
".# c #007c00",
".a c #007e00",
".b c #008200",
".c c #008600",
".k c #008a00",
".j c #009900",
".u c #009d00",
".i c #00a000",
".K c #00a700",
".t c #00cc00",
".s c #00e400",
".C c #00e900",
".l c #047a04",
".D c #04c704",
".m c #126b12",
".E c #128412",
".v c #146914",
".L c #148414",
".R c #1a611a",
".d c #1d641d",
"## c #2f002f",
"#e c #330033",
"#y c #350035",
"#E c #360036",
"#z c #380038",
"#F c #390039",
"#A c #3b003b",
".F c #3c463c",
".S c #3c473c",
".n c #3c493c",
"#u c #3d473d",
"#N c #3d493d",
"#G c #3e463e",
".w c #433743",
".M c #434143",
"#p c #550055",
"#x c #590059",
".0 c #5d1d5d",
".e c #5e1f5e",
"#o c #600060",
".6 c #630063",
"#h c #640064",
"#D c #650065",
"#. c #670067",
"#d c #6b006b",
".h c #7c007c",
".g c #7d007d",
".f c #7e007e",
".x c #7e167e",
".T c #7e177e",
".7 c #7f007f",
".N c #7f147f",
".G c #7f157f",
".1 c #7f167f",
".o c #7f177f",
"#l c #811681",
"#O c #811781",
"#B c #841484",
"#H c #841584",
"#q c #9b009b",
".r c #9d009d",
".q c #9f009f",
".p c #a000a0",
"#Q c #a100a1",
"#f c #a300a3",
"#P c #a400a4",
"#v c #ae00ae",
"#I c #af00af",
"#n c #ba00ba",
".H c #bb00bb",
".U c #bc00bc",
"#w c #be00be",
"#J c #c000c0",
".y c #c006c0",
".2 c #c007c0",
"#k c #c100c1",
"#r c #c200c2",
"#t c #c300c3",
".O c #c305c3",
"#s c #c400c4",
"#K c #c506c5",
"#m c #c507c5",
".Y c #cb00cb",
".5 c #cc00cc",
"#C c #cc05cc",
".X c #cd00cd",
".9 c #ce00ce",
"#c c #d100d1",
"#j c #d400d4",
".B c #de00de",
".8 c #df00df",
".A c #e000e0",
".z c #e200e2",
"#g c #e400e4",
"#M c #e600e6",
"#L c #e800e8",
".I c #ea00ea",
".V c #eb00eb",
".P c #ec00ec",
".Z c #ee00ee",
".3 c #ef00ef",
".W c #f000f0",
"#a c #f100f1",
"#b c #f200f2",
"#i c #f500f5",
".Q c #fa00fa",
".4 c #fe00fe",
".J c #ff00ff",
"Qt.#.a.b.c.d.e.f.g.h.h.g.f.e.d.c.b.a.#Qt",
".i.j.k.l.m.n.o.p.q.r.r.q.p.o.n.m.l.k.j.i",
".s.t.u.v.w.x.y.z.A.B.B.A.z.y.x.w.v.u.t.s",
".C.D.E.F.G.H.I.J.J.J.J.J.J.I.H.G.F.E.D.C",
".K.L.M.N.O.P.Q.J.J.J.J.J.J.Q.P.O.N.M.L.K",
".R.S.T.U.V.W.X.Y.Z.J.J.Z.Y.X.W.V.U.T.S.R",
".0.1.2.3.4.5.6.6.Y.J.J.Y.6.6.5.4.3.2.1.0",
".7.p.8.J.J.Y.6.6.Y.J.J.Y.6.6.Y.J.J.8.p.7",
".f.q.8.J.J.Z.Y.Y.Z.J.J.Z.Y.Y.Z.J.J.8.q.f",
".h.r.B.J.J.J.J.3.X.H.H.X.3.J.J.J.J.B.r.h",
".h.r.B.J.J.J.J.9#.#####..9.J.J.J.J.B.r.h",
".f.p.A#a.X.9#b#c#d#e#e#d#c#b.9.X#a.A.p.f",
".7#f#g.9#h.6.X#i#j#k#k#j#i.X.6#h.9#g#f.7",
".0#l#m#n#o#p#q#r#s#t#t#s#r#q#p#o#n#m#l.0",
".R#u.o#v#w.p#x#y#z#A#A#z#y#x.p#w#v.o#u.R",
".K.L.M#B#C#k#D#y#E#F#F#E#y#D#k#C#B.M.L.K",
".C.D.E#G#H#I.U#k#k#J#J#k#k.U#I#H#G.E.D.C",
".s.t.u.v.w.1#K#L#M#g#g#M#L#K.1.w.v.u.t.s",
".i.j.k.l.m#N#O#P#f#Q#Q#f#P#O#N.m.l.k.j.i",
"Qt.#.a.b.c.d.e.f.g.h.h.g.f.e.d.c.b.a.#Qt"};
