/* XPM */
static char *toxic_20[]={
"20 20 73 2",
".f c #000000",
"## c #000100",
".x c #000400",
".X c #000500",
".y c #000600",
"#g c #000700",
".w c #001100",
"#. c #001200",
".Y c #001400",
".L c #001500",
".m c #001600",
".n c #001700",
".9 c #001d00",
".e c #001f00",
".v c #003200",
".z c #003700",
".Q c #003c00",
".Z c #004100",
".1 c #004400",
".l c #004600",
".8 c #004700",
".o c #004900",
".0 c #006100",
".d c #006400",
".u c #006700",
".k c #006800",
".A c #006900",
".p c #006b00",
".j c #007900",
".q c #007a00",
"Qt c #007b00",
".# c #007c00",
".a c #007e00",
".P c #008100",
".b c #008200",
".E c #008300",
".M c #008400",
".c c #008600",
".i c #008a00",
".h c #009900",
".t c #009d00",
".g c #00a000",
".O c #00a700",
".D c #00c600",
".N c #00c700",
".B c #00cc00",
".s c #00cd00",
".r c #00e400",
".C c #00e900",
"#f c #0c0c0c",
".F c #0e540e",
".K c #0f0f0f",
"#e c #2d2d2d",
".G c #2e412e",
".R c #2e422e",
".7 c #2f2f2f",
".W c #303030",
".J c #313131",
".2 c #3e3c3e",
".H c #403c40",
"#a c #403f40",
".I c #424042",
"#d c #747474",
".S c #929692",
".6 c #969696",
".V c #979797",
".3 c #c2c1c2",
"#b c #c5c5c5",
".T c #cac8ca",
".U c #cdcccd",
"#c c #d8d8d8",
".5 c #dddddd",
".4 c #fafafa",
"Qt.#.a.b.c.d.e.f.f.f.f.f.f.e.d.c.b.a.#Qt",
".g.h.i.j.k.l.m.f.f.f.f.f.f.n.o.p.q.i.h.g",
".r.s.t.u.v.w.x.f.f.f.f.f.f.y.m.z.A.t.B.r",
".C.D.E.F.G.H.I.J.K.f.f.f.f.f.f.L.l.M.N.C",
".O.P.Q.R.S.T.U.V.W.f.f.f.f.f.f.X.Y.Z.M.O",
".0.1.w.2.3.4.5.6.7.f.f.f.f.f.f.f.f.n.8.0",
".9#.###a#b#c#d#e#f.f.f.f.f.f.f.f.f#g.m.9",
".f.f.f.J.V.V.J.f.f.f.f.f.f.f.f.f.f.f.f.f",
".f.f.f.K.W.W.K.f.f.f.f.f.f.f.f.f.f.f.f.f",
".f.f.f.f.f.f.f.f.f.f.f.f.f.f.f.f.f.f.f.f",
".f.f.f.f.f.f.f.f.f.f.f.f.f.f.f.f.f.f.f.f",
".f.f.f.f.f.f.f.f.f.f.f.f.f.f.f.f.f.f.f.f",
".f.f.f.f.f.f.f.f.f.f.f.f.f.f.f.f.f.f.f.f",
".9.m#g.f.f.f.f.f.f.f.f.f.f.f.f.f.f#g.m.9",
".0.8.n.f.f.f.f.f.f.f.f.f.f.f.f.f.f.n.8.0",
".O.M.Z.Y.X.f.f.f.f.f.f.f.f.f.f.X.Y.Z.M.O",
".C.N.M.l.L.f.f.f.f.f.f.f.f.f.f.L.l.M.N.C",
".r.B.t.A.z.m.y.f.f.f.f.f.f.y.m.z.A.t.B.r",
".g.h.i.q.p.o.n.f.f.f.f.f.f.n.o.p.q.i.h.g",
"Qt.#.a.b.c.d.e.f.f.f.f.f.f.e.d.c.b.a.#Qt"};
