/* XPM */
static char *toxic_10[]={
"10 10 4 1",
"# c #000000",
". c #008000",
"a c #00ff00",
"b c #ffffff",
"...####...",
"a.######.a",
".#bb#####.",
"##b#######",
"##########",
"##########",
"##########",
".########.",
"a.######.a",
"...####..."};
